HIERARCHY
ROOT Hips
{
	OFFSET 0.00000 0.00000 0.00000
	CHANNELS 6 Xposition Yposition Zposition Zrotation Yrotation Xrotation 
	JOINT RightUpLegDummy
	{
		OFFSET 0 0 0
		CHANNELS 3 Zrotation Yrotation Xrotation
		JOINT RightUpLeg
		{
			OFFSET -3.52197 -3.41223 0.04002
			CHANNELS 3 Zrotation Yrotation Xrotation
			JOINT RightLeg
			{
				OFFSET 0.00006 -17.42390 1.60435
				CHANNELS 3 Zrotation Yrotation Xrotation
				JOINT RightFoot
				{
					OFFSET 0.06153 -16.50078 -1.63901
					CHANNELS 3 Zrotation Yrotation Xrotation
					JOINT RightToes
					{
						OFFSET 0.00298 -1.73825 3.34613
						CHANNELS 3 Zrotation Yrotation Xrotation
						End Site
						{
							OFFSET 0.00480 -0.05416 3.85043
						}
					}
				}
			}
		}
	}
	JOINT SpineDummy
	{
		OFFSET 0 0 0
		CHANNELS 3 Zrotation Yrotation Xrotation
		JOINT Spine
		{
			OFFSET 0.00000 4.68130 0.00000
			CHANNELS 3 Zrotation Yrotation Xrotation
			JOINT Spine1
			{
				OFFSET -0.00000 10.10138 0.05002
				CHANNELS 3 Zrotation Yrotation Xrotation
				JOINT HEadDummy
				{
					OFFSET 0 0 0
					CHANNELS 3 Zrotation Yrotation Xrotation
					JOINT Head
					{
						OFFSET -0.00000 3.43865 0.00438
						CHANNELS 3 Zrotation Yrotation Xrotation
						End Site
						{
							OFFSET -0.11417 5.02924 0.98962
						}
					}
				}
				JOINT LeftShoulder1Dummy
				{
					OFFSET 0 0 0
					CHANNELS 3 Zrotation Yrotation Xrotation
					JOINT LeftShoulder1
					{
						OFFSET 3.53937 -0.14262 -0.08662
						CHANNELS 3 Zrotation Yrotation Xrotation
						JOINT LeftArm
						{
							OFFSET 4.04833 -0.00133 0.12681
							CHANNELS 3 Zrotation Yrotation Xrotation
							JOINT LeftForeArm
							{
								OFFSET 10.33880 -0.01036 -0.55515
								CHANNELS 3 Zrotation Yrotation Xrotation
								JOINT LeftHand
								{
									OFFSET 8.69677 0.07543 0.40060
									CHANNELS 3 Zrotation Yrotation Xrotation
									End Site
									{
										OFFSET 5.28377 -0.21905 0.59205
									}
								}
							}
						}
					}
				}
				JOINT RightShoulderDummy
				{
					OFFSET 0 0 0
					CHANNELS 3 Zrotation Yrotation Xrotation
					JOINT RightShoulder
					{
						OFFSET -3.53937 -0.14262 -0.08660
						CHANNELS 3 Zrotation Yrotation Xrotation
						JOINT RightArm
						{
							OFFSET -4.04833 -0.00133 0.12683
							CHANNELS 3 Zrotation Yrotation Xrotation
							JOINT RightForeArm
							{
								OFFSET -10.37987 -0.01039 -0.55511
								CHANNELS 3 Zrotation Yrotation Xrotation
								JOINT RightHand
								{
									OFFSET -8.67398 0.07538 0.40058
									CHANNELS 3 Zrotation Yrotation Xrotation
									End Site
									{
										OFFSET -5.24810 -0.21916 0.59204
									}
								}
							}
						}
					}
				}
			}
		}
	}
	JOINT LeftUpLegDummy
	{
		OFFSET 0 0 0
		CHANNELS 3 Zrotation Yrotation Xrotation
		JOINT LeftUpLeg
		{
			OFFSET 3.52197 -3.41223 0.04002
			CHANNELS 3 Zrotation Yrotation Xrotation
			JOINT LeftLeg
			{
				OFFSET -0.00012 -17.42399 1.60337
				CHANNELS 3 Zrotation Yrotation Xrotation
				JOINT LeftFoot
				{
					OFFSET -0.09972 -16.50070 -1.63802
					CHANNELS 3 Zrotation Yrotation Xrotation
					JOINT LeftToes
					{
						OFFSET -0.01575 -1.73823 3.34611
						CHANNELS 3 Zrotation Yrotation Xrotation
						End Site
						{
							OFFSET 0.03150 -0.01868 3.85031
						}
					}
				}
			}
		}
	}
}
MOTION
Frames: 15
Frame Time: 0.033333
-35.2446 38.7548 -37.8687 -0.7781 -20.2303 -7.0781 0.0000 0.0000 0.0000 -4.0839 -7.3987 -6.2137 -10.6336 -5.0916 58.2939 8.3361 -1.1271 4.2797 0.0000 -0.0000 -0.0000 0.0000 0.0000 0.0000 -3.2943 -0.7392 13.2816 4.0820 -1.4724 -4.7710 -0.0000 0.0000 -0.0000 -2.0633 12.0816 19.3031 -0.0000 0.0000 -0.0000 -32.8659 -0.3622 1.5044 -46.1366 3.0276 -28.3358 -6.9835 5.3263 42.0397 15.6192 -4.7108 -1.3251 -0.0000 0.0000 -0.0000 30.5900 4.0311 2.7584 47.4400 -10.2702 -10.7961 9.0878 12.3266 14.9431 -7.6371 3.7842 -0.5719 0.0000 0.0000 0.0000 -4.6879 0.7332 -7.0236 -1.3721 2.6881 20.8821 7.8564 -0.2069 -7.6495 0.0000 0.0000 -0.0000
-35.6144 38.7996 -36.9241 -1.3880 -18.0505 -7.1824 0.0000 0.0000 0.0000 -2.9403 -5.8558 -8.9249 -11.8464 -6.1460 56.6273 7.1972 -0.8946 2.9885 0.0000 -0.0000 -0.0000 0.0000 0.0000 0.0000 -3.4067 -1.4429 13.9082 5.2835 -2.4123 -4.8539 -0.0000 0.0000 -0.0000 -2.0231 12.3754 18.8667 -0.0000 0.0000 -0.0000 -32.7182 -0.4497 1.5325 -45.7355 -0.9485 -25.9235 -7.8890 5.3394 41.1563 16.0339 -4.7843 -1.3717 -0.0000 0.0000 -0.0000 30.6128 4.0513 2.7675 47.4734 -11.1115 -11.7485 9.3519 11.7392 16.0661 -7.1731 3.7584 -0.5336 0.0000 0.0000 0.0000 -4.3691 0.8101 -5.2517 -1.9064 0.6208 21.4802 8.7816 -0.0944 -9.3842 0.0000 0.0000 -0.0000
-35.9895 38.8489 -35.9647 -1.9066 -16.3639 -7.3011 0.0000 0.0000 0.0000 -2.0305 -4.0083 -11.0953 -12.3292 -7.5501 52.7033 6.5971 -0.7410 1.5766 0.0000 -0.0000 -0.0000 0.0000 0.0000 0.0000 -3.3133 -1.8215 14.4621 6.1022 -2.9621 -4.9256 -0.0000 0.0000 -0.0000 -1.6457 12.3949 18.3167 -0.0000 0.0000 -0.0000 -32.3714 -0.5504 1.5574 -45.4010 -4.6969 -23.0541 -9.0993 5.4864 38.6146 15.9846 -4.9780 -1.3927 -0.0000 0.0000 -0.0000 30.7751 4.1049 2.7993 47.2620 -11.9649 -13.1748 9.6464 10.9543 17.0602 -7.3626 3.6138 -0.5406 0.0000 0.0000 0.0000 -3.8068 1.1592 -3.2622 -2.5720 -1.1124 21.5907 9.1476 0.0267 -10.8630 0.0000 0.0000 -0.0000
-36.3642 38.9330 -34.9880 -2.2645 -14.8929 -7.3070 0.0000 0.0000 0.0000 -1.5076 -2.4292 -12.6571 -12.0916 -9.3842 46.4640 6.8452 -0.6847 0.0816 0.0000 -0.0000 -0.0000 0.0000 0.0000 0.0000 -3.2312 -2.0555 14.8235 6.7441 -3.3347 -5.0440 -0.0000 0.0000 -0.0000 -1.1999 12.4107 17.7804 -0.0000 0.0000 -0.0000 -32.0770 -0.6389 1.5792 -44.9196 -8.0070 -20.0442 -10.2906 4.6795 35.2974 15.8119 -5.5631 -1.4527 -0.0000 0.0000 -0.0000 31.0148 4.1690 2.8411 46.7438 -12.5055 -15.4563 10.0798 9.4132 19.0137 -7.8809 3.4430 -0.5707 0.0000 0.0000 0.0000 -3.1577 1.6490 -1.0341 -3.3468 -2.7704 20.9533 9.3935 0.1286 -12.0217 0.0000 0.0000 -0.0000
-36.7298 39.0280 -34.0092 -2.4668 -13.3721 -7.0214 0.0000 0.0000 0.0000 -1.3141 -1.3546 -13.6659 -10.9724 -11.4572 38.0466 7.3097 -0.7038 -0.3828 0.0000 -0.0000 -0.0000 0.0000 0.0000 0.0000 -3.2728 -2.2507 14.7581 7.4350 -3.6727 -5.0780 -0.0000 0.0000 -0.0000 -0.9385 12.3688 17.2869 -0.0000 0.0000 -0.0000 -31.9381 -0.6807 1.5893 -44.2408 -11.1660 -17.3085 -11.1505 0.1089 32.8202 15.5712 -6.1822 -1.5086 -0.0000 0.0000 -0.0000 31.0695 4.1833 2.8505 46.1485 -12.5931 -18.0619 10.3464 7.2977 21.5038 -8.0845 3.2721 -0.5758 0.0000 0.0000 0.0000 -2.6265 1.9946 0.9652 -4.0066 -4.5379 20.0192 9.9985 0.2234 -12.9982 0.0000 0.0000 -0.0000
-37.0787 39.1180 -33.0304 -2.5316 -12.0562 -6.5096 0.0000 0.0000 0.0000 -1.3091 -0.6486 -14.1049 -8.8610 -13.3008 27.8484 7.2068 -0.7613 0.7579 0.0000 -0.0000 -0.0000 0.0000 0.0000 0.0000 -3.2297 -2.3585 14.3787 7.9166 -3.8692 -5.0449 -0.0000 0.0000 -0.0000 -0.8136 12.2329 16.6904 -0.0000 0.0000 -0.0000 -31.7258 -0.7052 1.5897 -43.7129 -14.1622 -14.3021 -11.5724 -4.4308 30.2972 15.2248 -6.3202 -1.4907 -0.0000 0.0000 -0.0000 30.8964 4.1538 2.8265 45.6449 -12.3425 -19.8906 10.2183 5.2765 23.1919 -7.8864 3.0668 -0.5486 0.0000 0.0000 0.0000 -2.2485 2.2028 2.7658 -4.4315 -6.2010 18.7989 10.6015 0.2902 -13.5891 0.0000 0.0000 -0.0000
-37.4118 39.2235 -32.0600 -2.4250 -11.1410 -6.0516 0.0000 0.0000 0.0000 -1.3378 -0.7139 -13.8428 -5.8660 -13.9601 16.5131 7.3936 -0.9125 2.8329 0.0000 -0.0000 -0.0000 0.0000 0.0000 0.0000 -3.0118 -2.3814 14.1403 7.8994 -3.8636 -5.1758 -0.0000 0.0000 -0.0000 -0.6173 12.0673 15.9285 -0.0000 0.0000 -0.0000 -31.2447 -0.7868 1.5998 -43.6625 -16.6227 -8.1767 -10.8810 -9.4159 24.8817 15.0022 -6.1610 -1.4482 -0.0000 0.0000 -0.0000 30.7822 4.1455 2.8148 45.0845 -11.9146 -20.7684 9.8839 3.6075 23.9489 -7.9097 2.8031 -0.5343 0.0000 0.0000 0.0000 -2.0034 2.4719 4.9117 -4.6029 -7.6008 16.7866 10.8410 0.2913 -13.5508 0.0000 0.0000 -0.0000
-37.7527 39.3073 -31.0946 -2.2057 -10.4378 -5.7872 0.0000 0.0000 0.0000 -1.2150 -1.7232 -13.0904 -2.6336 -12.4205 5.8941 8.7112 -1.1356 3.7066 0.0000 -0.0000 -0.0000 0.0000 0.0000 0.0000 -2.7875 -2.3725 14.1436 7.6410 -3.7680 -5.4303 -0.0000 0.0000 -0.0000 -0.3385 11.9930 15.0918 -0.0000 0.0000 -0.0000 -30.7515 -0.9242 1.6294 -43.7562 -18.4642 0.3791 -8.6061 -14.2876 17.0141 15.1784 -6.3726 -1.4925 -0.0000 0.0000 -0.0000 30.8957 4.1775 2.8352 44.2766 -11.2877 -21.3966 9.5920 2.0934 24.6696 -8.5183 2.5119 -0.5585 0.0000 0.0000 0.0000 -1.7877 2.9446 7.3237 -4.5771 -8.8419 14.5912 11.0277 0.2877 -13.4774 0.0000 0.0000 -0.0000
-38.1310 39.3004 -30.1010 -2.0543 -9.8338 -5.6588 0.0000 0.0000 0.0000 -1.1318 -1.6701 -12.6483 -0.4182 -9.7125 -0.7187 10.1763 -1.1532 1.6292 0.0000 -0.0000 -0.0000 0.0000 0.0000 0.0000 -2.6794 -2.2822 14.0482 7.6449 -3.6480 -5.4432 -0.0000 0.0000 -0.0000 -0.1721 12.3013 14.2175 -0.0000 0.0000 -0.0000 -30.6471 -1.0140 1.6577 -43.5001 -19.9993 7.4118 -5.8625 -17.7469 10.4399 15.6436 -7.0909 -1.6323 -0.0000 0.0000 -0.0000 31.0207 4.2053 2.8550 43.3187 -10.3155 -21.7544 9.3794 0.7571 25.3213 -9.1971 2.2912 -0.5892 0.0000 0.0000 0.0000 -1.3501 3.7177 9.4199 -4.5996 -10.2379 13.5614 11.1681 0.3551 -14.1050 0.0000 0.0000 -0.0000
-38.5518 39.2144 -29.0623 -1.9750 -9.4245 -5.6820 0.0000 0.0000 0.0000 -0.5925 -1.0823 -12.8480 -0.0832 -6.2698 -1.9863 10.2066 -0.9088 -1.2794 0.0000 -0.0000 -0.0000 0.0000 0.0000 0.0000 -2.7286 -2.0643 13.8246 7.9976 -3.4733 -5.2118 -0.0000 0.0000 -0.0000 -0.1773 13.2807 13.3232 -0.0000 0.0000 -0.0000 -30.8893 -1.0067 1.6658 -43.0273 -21.1826 11.5204 -3.8239 -19.7761 6.6010 16.0250 -7.7260 -1.7572 -0.0000 0.0000 -0.0000 30.9457 4.2039 2.8487 42.4159 -9.0284 -21.7970 9.2711 -0.1786 25.7408 -9.3599 2.2452 -0.5966 0.0000 0.0000 0.0000 -0.6225 4.8254 11.1828 -4.8864 -12.0452 13.8445 10.6060 0.4323 -15.0263 0.0000 0.0000 -0.0000
-39.0072 39.0779 -27.9527 -1.7582 -9.0487 -5.9005 0.0000 0.0000 0.0000 -0.0766 -0.6214 -12.9463 -0.4495 -4.4620 -0.0226 8.8382 -0.8306 -0.5948 0.0000 -0.0000 -0.0000 0.0000 0.0000 0.0000 -2.9562 -1.8840 13.5724 8.3186 -3.3374 -5.0495 -0.0000 0.0000 -0.0000 -0.1789 14.6761 12.7164 -0.0000 0.0000 -0.0000 -31.1328 -0.9980 1.6735 -42.7120 -21.4674 13.6299 -2.5912 -20.9652 4.5833 16.1716 -7.8137 -1.7858 -0.0000 0.0000 -0.0000 30.8181 4.1949 2.8357 41.6847 -7.7368 -21.5645 9.2784 -0.4788 25.8867 -9.2968 2.3422 -0.5994 0.0000 0.0000 0.0000 0.1439 6.1052 12.7538 -5.4371 -13.9475 15.1935 9.4854 0.4540 -15.6717 0.0000 0.0000 -0.0000
-39.4762 38.9098 -26.7564 -1.4907 -8.3232 -6.1237 0.0000 0.0000 0.0000 -0.0031 -0.9698 -12.7688 -0.5464 -4.7392 2.9358 7.7386 -1.0359 4.0867 0.0000 -0.0000 -0.0000 0.0000 0.0000 0.0000 -3.0214 -1.9696 13.0461 8.2389 -3.3860 -5.0296 -0.0000 0.0000 -0.0000 -0.0830 15.7633 12.8399 -0.0000 0.0000 -0.0000 -31.3125 -1.0774 1.7112 -42.5573 -20.7609 14.3223 -2.2757 -21.3036 3.9789 16.2136 -7.5229 -1.7520 -0.0000 0.0000 -0.0000 30.8190 4.1879 2.8332 41.2300 -6.7548 -21.1818 9.3696 0.0257 25.6538 -9.6558 2.3979 -0.6277 0.0000 0.0000 0.0000 0.8857 6.9309 13.7251 -6.2159 -15.0708 17.9088 8.6980 0.4491 -15.9883 0.0000 0.0000 -0.0000
-39.9180 38.7633 -25.5286 -1.6941 -7.2494 -6.1404 0.0000 0.0000 0.0000 0.0989 -1.6776 -12.7292 -0.3468 -5.6545 6.2909 6.6122 -1.1097 8.2488 0.0000 -0.0000 -0.0000 0.0000 0.0000 0.0000 -2.2105 -2.2845 12.1003 7.6862 -3.5479 -4.9337 -0.0000 0.0000 -0.0000 -0.0663 16.2006 13.5874 -0.0000 0.0000 -0.0000 -31.6028 -1.1873 1.7657 -42.4558 -19.7737 12.5441 -3.5254 -20.1191 6.2102 16.2692 -7.2890 -1.7272 -0.0000 0.0000 -0.0000 30.7993 4.1628 2.8224 41.1626 -6.0334 -20.7144 9.5052 1.3947 24.7819 -10.3815 2.3537 -0.6730 0.0000 0.0000 0.0000 2.0455 6.7108 13.5890 -7.5617 -15.1270 22.2947 7.6187 0.3663 -15.4564 0.0000 0.0000 -0.0000
-40.3046 38.6600 -24.3772 -2.5566 -6.2106 -6.1117 0.0000 0.0000 0.0000 0.9250 -1.9312 -12.8751 -0.2072 -5.9427 10.2044 3.5474 -0.5961 8.3688 0.0000 -0.0000 -0.0000 0.0000 0.0000 0.0000 -0.4518 -2.5438 11.2494 6.8984 -3.6070 -4.6709 -0.0000 0.0000 -0.0000 -0.2613 16.2373 14.1851 -0.0000 0.0000 -0.0000 -31.9228 -1.2344 1.7985 -42.5618 -19.1340 5.5958 -6.7633 -16.6413 13.8503 16.3877 -7.2334 -1.7329 -0.0000 0.0000 -0.0000 30.5786 4.1150 2.7882 41.3520 -5.2007 -20.0962 9.6886 3.4442 23.2265 -10.8125 2.4251 -0.7080 0.0000 0.0000 0.0000 4.0340 6.5902 12.1954 -9.8484 -15.2121 28.6680 4.1051 0.1610 -13.2620 0.0000 0.0000 -0.0000
-40.6500 38.5998 -23.3643 -3.4275 -5.3451 -6.2947 0.0000 0.0000 0.0000 2.0985 -1.8547 -12.6857 -0.4022 -5.9628 13.8352 -0.5248 0.1013 5.8857 0.0000 -0.0000 -0.0000 0.0000 0.0000 0.0000 1.0828 -2.5707 11.0821 6.3435 -3.4942 -4.5017 -0.0000 0.0000 -0.0000 -0.4474 15.9767 14.0604 -0.0000 0.0000 -0.0000 -32.0271 -1.2475 1.8084 -43.0963 -18.6495 -5.4817 -10.1404 -10.9991 24.8418 16.5920 -7.0400 -1.7290 -0.0000 0.0000 -0.0000 30.3016 4.0673 2.7501 41.4420 -3.9998 -19.0309 9.8912 5.8447 21.1626 -10.6894 2.7001 -0.7229 0.0000 0.0000 0.0000 6.1219 6.9118 9.9750 -11.8711 -14.1764 35.8800 -2.0548 0.0934 -9.7463 0.0000 0.0000 -0.0000
